<svg width="40" height="41" viewBox="0 0 40 41" fill="none" xmlns="http://www.w3.org/2000/svg">
<rect y="0.5" width="40" height="40" rx="20" fill="#EDFFF3"/>
<path d="M29.7949 16.5459L17.7949 28.5459C17.6904 28.6508 17.5662 28.734 17.4295 28.7908C17.2927 28.8476 17.1461 28.8768 16.998 28.8768C16.85 28.8768 16.7034 28.8476 16.5666 28.7908C16.4299 28.734 16.3057 28.6508 16.2012 28.5459L10.9512 23.2959C10.8465 23.1913 10.7635 23.0671 10.7069 22.9303C10.6502 22.7936 10.6211 22.6471 10.6211 22.4991C10.6211 22.3511 10.6502 22.2045 10.7069 22.0678C10.7635 21.9311 10.8465 21.8068 10.9512 21.7022C11.0558 21.5975 11.1801 21.5145 11.3168 21.4579C11.4535 21.4013 11.6001 21.3721 11.748 21.3721C11.896 21.3721 12.0426 21.4013 12.1793 21.4579C12.316 21.5145 12.4403 21.5975 12.5449 21.7022L16.999 26.1563L28.203 14.9541C28.4144 14.7427 28.701 14.624 28.9999 14.624C29.2988 14.624 29.5854 14.7427 29.7968 14.9541C30.0081 15.1654 30.1269 15.4521 30.1269 15.7509C30.1269 16.0498 30.0081 16.3365 29.7968 16.5478L29.7949 16.5459Z" fill="#16AB25"/>
</svg>
