<svg width="40" height="41" viewBox="0 0 40 41" fill="none" xmlns="http://www.w3.org/2000/svg">
<rect y="0.5" width="40" height="40" rx="20" fill="#FAEAEE"/>
<path d="M26.6926 31.25H13.3088C11.8698 31.25 10.5698 30.514 9.82977 29.281C9.09277 28.051 9.05662 26.5621 9.73162 25.2981L16.3376 12.9431C17.0706 11.5701 18.4407 10.751 19.9987 10.751C21.5567 10.751 22.9266 11.5701 23.6596 12.9431L30.2656 25.2981C30.9426 26.5621 30.9066 28.051 30.1686 29.281C29.4336 30.514 28.1326 31.25 26.6926 31.25ZM20.0007 12.25C19.0047 12.25 18.1306 12.7729 17.6616 13.6489L11.0556 26.0039C10.6306 26.7989 10.6546 27.735 11.1176 28.509C11.5836 29.286 12.4028 29.749 13.3098 29.749H26.6938C27.6008 29.749 28.4207 29.285 28.8857 28.509C29.3487 27.736 29.3707 26.7999 28.9467 26.0039L22.3408 13.6489C21.8708 12.7729 20.9967 12.25 20.0007 12.25ZM20.7507 22.5V18.5C20.7507 18.086 20.4147 17.75 20.0007 17.75C19.5867 17.75 19.2507 18.086 19.2507 18.5V22.5C19.2507 22.914 19.5867 23.25 20.0007 23.25C20.4147 23.25 20.7507 22.914 20.7507 22.5ZM21.0207 25.5C21.0207 24.948 20.5737 24.5 20.0207 24.5H20.0107C19.4587 24.5 19.0156 24.948 19.0156 25.5C19.0156 26.052 19.4687 26.5 20.0207 26.5C20.5727 26.5 21.0207 26.052 21.0207 25.5Z" fill="#E83333"/>
</svg>
