<svg width="148" height="46" viewBox="0 0 148 46" fill="none" xmlns="http://www.w3.org/2000/svg">
<circle cx="20.5" cy="25.5" r="20.5" fill="#7391C8"/>
<circle cx="20.5" cy="28.5" r="17.5" fill="#7391C8"/>
<circle cx="20.5" cy="28.5" r="17" stroke="white" stroke-opacity="0.97"/>
<circle cx="20.5" cy="32.5" r="13.5" fill="white"/>
<path d="M56.224 16.478C57.556 16.478 58.756 16.7 59.824 17.144C60.892 17.588 61.804 18.218 62.56 19.034C63.316 19.85 63.892 20.84 64.288 22.004C64.696 23.156 64.9 24.446 64.9 25.874C64.9 27.314 64.696 28.61 64.288 29.762C63.892 30.914 63.316 31.898 62.56 32.714C61.804 33.53 60.892 34.16 59.824 34.604C58.756 35.036 57.556 35.252 56.224 35.252C54.88 35.252 53.668 35.036 52.588 34.604C51.52 34.16 50.608 33.53 49.852 32.714C49.096 31.898 48.514 30.914 48.106 29.762C47.71 28.61 47.512 27.314 47.512 25.874C47.512 24.446 47.71 23.156 48.106 22.004C48.514 20.84 49.096 19.85 49.852 19.034C50.608 18.218 51.52 17.588 52.588 17.144C53.668 16.7 54.88 16.478 56.224 16.478ZM56.224 32.75C58.024 32.75 59.368 32.15 60.256 30.95C61.144 29.738 61.588 28.052 61.588 25.892C61.588 23.72 61.144 22.028 60.256 20.816C59.368 19.604 58.024 18.998 56.224 18.998C55.312 18.998 54.514 19.154 53.83 19.466C53.158 19.778 52.594 20.228 52.138 20.816C51.694 21.404 51.358 22.13 51.13 22.994C50.914 23.846 50.806 24.812 50.806 25.892C50.806 28.052 51.25 29.738 52.138 30.95C53.038 32.15 54.4 32.75 56.224 32.75ZM71.9878 19.412C72.3838 18.968 72.8038 18.566 73.2478 18.206C73.6918 17.846 74.1598 17.54 74.6518 17.288C75.1558 17.024 75.6838 16.826 76.2358 16.694C76.7998 16.55 77.4058 16.478 78.0538 16.478C79.0498 16.478 79.9258 16.646 80.6818 16.982C81.4498 17.306 82.0858 17.774 82.5898 18.386C83.1058 18.986 83.4958 19.712 83.7598 20.564C84.0238 21.416 84.1558 22.358 84.1558 23.39V35H80.9338V23.39C80.9338 22.01 80.6158 20.942 79.9798 20.186C79.3558 19.418 78.4018 19.034 77.1178 19.034C76.1698 19.034 75.2818 19.262 74.4538 19.718C73.6378 20.174 72.8818 20.792 72.1858 21.572V35H68.9638V16.766H70.8898C71.3458 16.766 71.6278 16.988 71.7358 17.432L71.9878 19.412ZM101.728 20.006C101.632 20.138 101.536 20.24 101.44 20.312C101.344 20.384 101.212 20.42 101.044 20.42C100.864 20.42 100.666 20.348 100.45 20.204C100.234 20.048 99.964 19.88 99.64 19.7C99.328 19.52 98.938 19.358 98.47 19.214C98.014 19.058 97.45 18.98 96.778 18.98C95.878 18.98 95.086 19.142 94.402 19.466C93.718 19.778 93.142 20.234 92.674 20.834C92.218 21.434 91.87 22.16 91.63 23.012C91.402 23.864 91.288 24.818 91.288 25.874C91.288 26.978 91.414 27.962 91.666 28.826C91.918 29.678 92.272 30.398 92.728 30.986C93.196 31.562 93.754 32.006 94.402 32.318C95.062 32.618 95.8 32.768 96.616 32.768C97.396 32.768 98.038 32.678 98.542 32.498C99.046 32.306 99.46 32.096 99.784 31.868C100.12 31.64 100.396 31.436 100.612 31.256C100.84 31.064 101.062 30.968 101.278 30.968C101.542 30.968 101.746 31.07 101.89 31.274L102.79 32.444C102.394 32.936 101.944 33.356 101.44 33.704C100.936 34.052 100.39 34.346 99.802 34.586C99.226 34.814 98.62 34.982 97.984 35.09C97.348 35.198 96.7 35.252 96.04 35.252C94.9 35.252 93.838 35.042 92.854 34.622C91.882 34.202 91.036 33.596 90.316 32.804C89.596 32 89.032 31.016 88.624 29.852C88.216 28.688 88.012 27.362 88.012 25.874C88.012 24.518 88.198 23.264 88.57 22.112C88.954 20.96 89.506 19.97 90.226 19.142C90.958 18.302 91.852 17.648 92.908 17.18C93.976 16.712 95.2 16.478 96.58 16.478C97.864 16.478 98.992 16.688 99.964 17.108C100.948 17.516 101.818 18.098 102.574 18.854L101.728 20.006ZM118.117 23.894C118.117 23.15 118.009 22.472 117.793 21.86C117.589 21.236 117.283 20.702 116.875 20.258C116.479 19.802 115.993 19.454 115.417 19.214C114.841 18.962 114.187 18.836 113.455 18.836C111.919 18.836 110.701 19.286 109.801 20.186C108.913 21.074 108.361 22.31 108.145 23.894H118.117ZM120.709 32.444C120.313 32.924 119.839 33.344 119.287 33.704C118.735 34.052 118.141 34.34 117.505 34.568C116.881 34.796 116.233 34.964 115.561 35.072C114.889 35.192 114.223 35.252 113.563 35.252C112.303 35.252 111.139 35.042 110.071 34.622C109.015 34.19 108.097 33.566 107.317 32.75C106.549 31.922 105.949 30.902 105.517 29.69C105.085 28.478 104.869 27.086 104.869 25.514C104.869 24.242 105.061 23.054 105.445 21.95C105.841 20.846 106.405 19.892 107.137 19.088C107.869 18.272 108.763 17.636 109.819 17.18C110.875 16.712 112.063 16.478 113.383 16.478C114.475 16.478 115.483 16.664 116.407 17.036C117.343 17.396 118.147 17.924 118.819 18.62C119.503 19.304 120.037 20.156 120.421 21.176C120.805 22.184 120.997 23.336 120.997 24.632C120.997 25.136 120.943 25.472 120.835 25.64C120.727 25.808 120.523 25.892 120.223 25.892H108.037C108.073 27.044 108.229 28.046 108.505 28.898C108.793 29.75 109.189 30.464 109.693 31.04C110.197 31.604 110.797 32.03 111.493 32.318C112.189 32.594 112.969 32.732 113.833 32.732C114.637 32.732 115.327 32.642 115.903 32.462C116.491 32.27 116.995 32.066 117.415 31.85C117.835 31.634 118.183 31.436 118.459 31.256C118.747 31.064 118.993 30.968 119.197 30.968C119.461 30.968 119.665 31.07 119.809 31.274L120.709 32.444Z" fill="#7391C8"/>
</svg>
