<svg width="40" height="41" viewBox="0 0 40 41" fill="none" xmlns="http://www.w3.org/2000/svg">
<rect y="0.5" width="40" height="40" rx="20" fill="#EDFFF3"/>
<path fill-rule="evenodd" clip-rule="evenodd" d="M10.9308 20.2003C11.0024 15.2397 15.0762 11.25 20.0789 11.25C23.3873 11.25 26.287 12.9943 27.8934 15.6072C28.1103 15.9601 28.0001 16.422 27.6473 16.6389C27.2944 16.8558 26.8325 16.7457 26.6156 16.3928C25.2727 14.2084 22.8484 12.75 20.0789 12.75C15.8945 12.75 12.5037 16.0777 12.431 20.1982L12.8314 19.8009C13.1254 19.5092 13.6003 19.511 13.892 19.8051C14.1838 20.0991 14.1819 20.574 13.8879 20.8657L12.2081 22.5324C11.9156 22.8225 11.444 22.8225 11.1516 22.5324L9.47176 20.8657C9.17772 20.574 9.17585 20.0991 9.46759 19.8051C9.75933 19.5111 10.2342 19.5092 10.5282 19.8009L10.9308 20.2003ZM27.7864 19.4666C28.0786 19.1778 28.5487 19.1778 28.8409 19.4666L30.5271 21.1333C30.8217 21.4244 30.8245 21.8993 30.5333 22.1939C30.2421 22.4885 29.7673 22.4913 29.4727 22.2001L29.0628 21.7949C28.9934 26.7604 24.9017 30.75 19.8825 30.75C16.5638 30.75 13.6538 29.007 12.0412 26.3939C11.8237 26.0414 11.9331 25.5793 12.2856 25.3618C12.6381 25.1442 13.1002 25.2536 13.3177 25.6061C14.6656 27.7903 17.1 29.25 19.8825 29.25C24.0887 29.25 27.4922 25.9171 27.5625 21.7969L27.1546 22.2001C26.86 22.4913 26.3852 22.4885 26.094 22.1939C25.8028 21.8993 25.8056 21.4244 26.1002 21.1333L27.7864 19.4666Z" fill="#16AB25"/>
</svg>
