<svg width="32" height="32" viewBox="0 0 32 32" fill="none" xmlns="http://www.w3.org/2000/svg">
<path fill-rule="evenodd" clip-rule="evenodd" d="M29.3327 15.9974C29.3327 23.3612 23.3631 29.3307 15.9993 29.3307C8.63555 29.3307 2.66602 23.3612 2.66602 15.9974C2.66602 8.6336 8.63555 2.66406 15.9993 2.66406C23.3631 2.66406 29.3327 8.6336 29.3327 15.9974ZM19.9993 11.9974C19.9993 14.2065 18.2085 15.9974 15.9993 15.9974C13.7902 15.9974 11.9993 14.2065 11.9993 11.9974C11.9993 9.78826 13.7902 7.9974 15.9993 7.9974C18.2085 7.9974 19.9993 9.78826 19.9993 11.9974ZM15.9993 27.3307C18.3781 27.3307 20.5856 26.5979 22.4086 25.3457C23.2137 24.7926 23.5578 23.739 23.0897 22.8817C22.1193 21.1044 20.1197 19.9974 15.9993 19.9974C11.8789 19.9974 9.8793 21.1044 8.90887 22.8816C8.44074 23.7389 8.78482 24.7925 9.58996 25.3456C11.4129 26.5979 13.6205 27.3307 15.9993 27.3307Z" fill="#121212"/>
</svg>
