<svg width="20" height="20" viewBox="0 0 20 20" fill="none" xmlns="http://www.w3.org/2000/svg">
<path d="M18.3346 18.3359L1.66797 18.3359" stroke="#808080" stroke-width="1.5" stroke-linecap="round"/>
<path d="M2.5 18.3296V9.45226C2.5 8.73816 2.80537 8.05815 3.33909 7.58373L8.33909 3.13929C9.2863 2.29732 10.7137 2.29732 11.6609 3.13929L16.6609 7.58373C17.1946 8.05815 17.5 8.73816 17.5 9.45226V18.3296" stroke="#808080" stroke-width="1.5" stroke-linecap="round"/>
<path d="M8.33203 7.5H11.6654" stroke="#808080" stroke-width="1.5" stroke-linecap="round"/>
<path d="M7.5 12.9141H12.5" stroke="#808080" stroke-width="1.5" stroke-linecap="round"/>
<path d="M7.5 15.4141H12.5" stroke="#808080" stroke-width="1.5" stroke-linecap="round"/>
<path d="M15 18.3333V13.3333C15 11.762 15 10.9763 14.5118 10.4882C14.0237 10 13.238 10 11.6667 10H8.33333C6.76198 10 5.97631 10 5.48816 10.4882C5 10.9763 5 11.762 5 13.3333V18.3333" stroke="#808080" stroke-width="1.5"/>
</svg>
