<svg width="20" height="21" viewBox="0 0 20 21" fill="none" xmlns="http://www.w3.org/2000/svg">
<path d="M1.66797 10.5C1.66797 7.35728 1.66797 5.78593 2.64428 4.80962C3.62059 3.83331 5.19194 3.83331 8.33464 3.83331H11.668C14.8107 3.83331 16.382 3.83331 17.3583 4.80962C18.3346 5.78593 18.3346 7.35728 18.3346 10.5V12.1666C18.3346 15.3093 18.3346 16.8807 17.3583 17.857C16.382 18.8333 14.8107 18.8333 11.668 18.8333H8.33463C5.19194 18.8333 3.62059 18.8333 2.64428 17.857C1.66797 16.8807 1.66797 15.3093 1.66797 12.1666V10.5Z" stroke="#5B5B5B" stroke-width="1.5"/>
<path d="M5.83203 3.83331V2.58331" stroke="#5B5B5B" stroke-width="1.5" stroke-linecap="round"/>
<path d="M14.168 3.83331V2.58331" stroke="#5B5B5B" stroke-width="1.5" stroke-linecap="round"/>
<circle cx="13.75" cy="14.25" r="1.25" stroke="#5B5B5B" stroke-width="1.5"/>
<path d="M2.08203 8H17.9154" stroke="#5B5B5B" stroke-width="1.5" stroke-linecap="round"/>
</svg>
