<svg width="20" height="21" viewBox="0 0 20 21" fill="none" xmlns="http://www.w3.org/2000/svg">
<path d="M18.1618 6.78827L8.16178 16.7883C8.07469 16.8757 7.97119 16.945 7.85724 16.9923C7.74328 17.0397 7.62111 17.064 7.49772 17.064C7.37433 17.064 7.25216 17.0397 7.1382 16.9923C7.02425 16.945 6.92075 16.8757 6.83366 16.7883L2.45866 12.4133C2.37145 12.3261 2.30228 12.2225 2.25508 12.1086C2.20788 11.9947 2.18359 11.8725 2.18359 11.7492C2.18359 11.6259 2.20788 11.5038 2.25508 11.3898C2.30228 11.2759 2.37145 11.1724 2.45866 11.0851C2.54586 10.9979 2.64939 10.9288 2.76333 10.8816C2.87727 10.8344 2.99939 10.8101 3.12272 10.8101C3.24605 10.8101 3.36817 10.8344 3.48211 10.8816C3.59605 10.9288 3.69958 10.9979 3.78678 11.0851L7.4985 14.7969L16.8352 5.46171C17.0113 5.28559 17.2502 5.18665 17.4993 5.18665C17.7484 5.18665 17.9872 5.28559 18.1633 5.46171C18.3395 5.63783 18.4384 5.8767 18.4384 6.12577C18.4384 6.37484 18.3395 6.61371 18.1633 6.78983L18.1618 6.78827Z" fill="#5B5B5B"/>
</svg>
