<svg width="20" height="21" viewBox="0 0 20 21" fill="none" xmlns="http://www.w3.org/2000/svg">
<path fill-rule="evenodd" clip-rule="evenodd" d="M6.05217 3.21707C6.15183 2.27539 6.94856 1.54169 7.91667 1.54169H12.0833C13.0514 1.54169 13.8482 2.27539 13.9478 3.21707C14.5837 3.23001 15.1336 3.26291 15.603 3.34914C16.2347 3.46517 16.7723 3.6862 17.2097 4.12365C17.7113 4.62524 17.9271 5.2568 18.0279 6.00689C18.125 6.72937 18.125 7.64797 18.125 8.78763V13.8791C18.125 15.0187 18.125 15.9373 18.0279 16.6598C17.9271 17.4099 17.7113 18.0415 17.2097 18.5431C16.7081 19.0447 16.0766 19.2604 15.3265 19.3612C14.604 19.4584 13.6854 19.4584 12.5457 19.4584H7.45428C6.31462 19.4584 5.39602 19.4584 4.67354 19.3612C3.92345 19.2604 3.29189 19.0447 2.79029 18.5431C2.2887 18.0415 2.07295 17.4099 1.9721 16.6598C1.87497 15.9373 1.87498 15.0187 1.875 13.8791V8.78762C1.87498 7.64797 1.87497 6.72937 1.9721 6.00689C2.07295 5.2568 2.2887 4.62524 2.79029 4.12364C3.22773 3.6862 3.7653 3.46517 4.39696 3.34914C4.86644 3.26291 5.41627 3.23001 6.05217 3.21707ZM6.05414 4.46741C5.45565 4.48019 4.99447 4.5103 4.62279 4.57857C4.15045 4.66534 3.87705 4.80465 3.67418 5.00753C3.44354 5.23816 3.29317 5.56197 3.21096 6.17345C3.12633 6.80291 3.125 7.63717 3.125 8.83335V13.8334C3.125 15.0295 3.12633 15.8638 3.21096 16.4933C3.29317 17.1047 3.44354 17.4285 3.67418 17.6592C3.90481 17.8898 4.22862 18.0402 4.8401 18.1224C5.46956 18.207 6.30382 18.2084 7.5 18.2084H12.5C13.6962 18.2084 14.5304 18.207 15.1599 18.1224C15.7714 18.0402 16.0952 17.8898 16.3258 17.6592C16.5565 17.4285 16.7068 17.1047 16.789 16.4933C16.8737 15.8638 16.875 15.0295 16.875 13.8334V8.83335C16.875 7.63717 16.8737 6.80291 16.789 6.17345C16.7068 5.56197 16.5565 5.23816 16.3258 5.00753C16.123 4.80465 15.8496 4.66534 15.3772 4.57857C15.0055 4.5103 14.5444 4.48019 13.9459 4.46741C13.8381 5.40053 13.0453 6.12502 12.0833 6.12502H7.91667C6.95466 6.12502 6.16187 5.40053 6.05414 4.46741ZM7.91667 2.79169C7.57149 2.79169 7.29167 3.07151 7.29167 3.41669V4.25002C7.29167 4.5952 7.57149 4.87502 7.91667 4.87502H12.0833C12.4285 4.87502 12.7083 4.5952 12.7083 4.25002V3.41669C12.7083 3.07151 12.4285 2.79169 12.0833 2.79169H7.91667ZM5.20833 9.25002C5.20833 8.90484 5.48816 8.62502 5.83333 8.62502H6.25C6.59518 8.62502 6.875 8.90484 6.875 9.25002C6.875 9.5952 6.59518 9.87502 6.25 9.87502H5.83333C5.48816 9.87502 5.20833 9.5952 5.20833 9.25002ZM8.125 9.25002C8.125 8.90484 8.40482 8.62502 8.75 8.62502H14.1667C14.5118 8.62502 14.7917 8.90484 14.7917 9.25002C14.7917 9.5952 14.5118 9.87502 14.1667 9.87502H8.75C8.40482 9.87502 8.125 9.5952 8.125 9.25002ZM5.20833 12.1667C5.20833 11.8215 5.48816 11.5417 5.83333 11.5417H6.25C6.59518 11.5417 6.875 11.8215 6.875 12.1667C6.875 12.5119 6.59518 12.7917 6.25 12.7917H5.83333C5.48816 12.7917 5.20833 12.5119 5.20833 12.1667ZM8.125 12.1667C8.125 11.8215 8.40482 11.5417 8.75 11.5417H14.1667C14.5118 11.5417 14.7917 11.8215 14.7917 12.1667C14.7917 12.5119 14.5118 12.7917 14.1667 12.7917H8.75C8.40482 12.7917 8.125 12.5119 8.125 12.1667ZM5.20833 15.0834C5.20833 14.7382 5.48816 14.4584 5.83333 14.4584H6.25C6.59518 14.4584 6.875 14.7382 6.875 15.0834C6.875 15.4285 6.59518 15.7084 6.25 15.7084H5.83333C5.48816 15.7084 5.20833 15.4285 5.20833 15.0834ZM8.125 15.0834C8.125 14.7382 8.40482 14.4584 8.75 14.4584H14.1667C14.5118 14.4584 14.7917 14.7382 14.7917 15.0834C14.7917 15.4285 14.5118 15.7084 14.1667 15.7084H8.75C8.40482 15.7084 8.125 15.4285 8.125 15.0834Z" fill="#5B5B5B"/>
</svg>
