<svg width="20" height="21" viewBox="0 0 20 21" fill="none" xmlns="http://www.w3.org/2000/svg">
<path d="M16.2868 15.4617C16.4629 15.6379 16.5618 15.8767 16.5618 16.1258C16.5618 16.3749 16.4629 16.6137 16.2868 16.7899C16.1107 16.966 15.8718 17.0649 15.6227 17.0649C15.3736 17.0649 15.1348 16.966 14.9587 16.7899L9.9985 11.8281L5.03678 16.7883C4.86066 16.9644 4.62179 17.0634 4.37272 17.0634C4.12365 17.0634 3.88478 16.9644 3.70866 16.7883C3.53254 16.6122 3.43359 16.3733 3.43359 16.1242C3.43359 15.8752 3.53254 15.6363 3.70866 15.4602L8.67038 10.5L3.71022 5.5383C3.5341 5.36218 3.43516 5.12331 3.43516 4.87423C3.43516 4.62516 3.5341 4.38629 3.71022 4.21017C3.88634 4.03405 4.12521 3.93511 4.37428 3.93511C4.62335 3.93511 4.86222 4.03405 5.03834 4.21017L9.9985 9.17189L14.9602 4.20939C15.1363 4.03327 15.3752 3.93433 15.6243 3.93433C15.8734 3.93433 16.1122 4.03327 16.2883 4.20939C16.4645 4.38551 16.5634 4.62438 16.5634 4.87345C16.5634 5.12252 16.4645 5.36139 16.2883 5.53751L11.3266 10.5L16.2868 15.4617Z" fill="#5B5B5B"/>
</svg>
