<svg width="20" height="21" viewBox="0 0 20 21" fill="none" xmlns="http://www.w3.org/2000/svg">
<path d="M13.4295 18.7764C11.7926 19.4545 9.99137 19.6319 8.25362 19.2862C6.51588 18.9406 4.91965 18.0874 3.66681 16.8345C2.41396 15.5817 1.56076 13.9855 1.2151 12.2477C0.869445 10.51 1.04685 8.70874 1.72489 7.07182C2.40292 5.43489 3.55113 4.03579 5.02432 3.05144C6.49751 2.06709 8.22952 1.54169 10.0013 1.54169C10.3465 1.54169 10.6263 1.82151 10.6263 2.16669C10.6263 2.51186 10.3465 2.79169 10.0013 2.79169C8.47674 2.79169 6.98641 3.24377 5.71879 4.09078C4.45116 4.93778 3.46316 6.14166 2.87973 7.55017C2.29631 8.95868 2.14366 10.5086 2.44109 12.0038C2.73851 13.4991 3.47266 14.8726 4.55069 15.9506C5.62872 17.0287 7.00222 17.7628 8.49749 18.0602C9.99276 18.3577 11.5426 18.205 12.9512 17.6216C14.3597 17.0382 15.5635 16.0502 16.4106 14.7825C17.2576 13.5149 17.7096 12.0246 17.7096 10.5C17.7096 10.1548 17.9895 9.87502 18.3346 9.87502C18.6798 9.87502 18.9596 10.1548 18.9596 10.5C18.9596 12.2718 18.4342 14.0038 17.4499 15.477C16.4655 16.9502 15.0664 18.0984 13.4295 18.7764Z" fill="#5B5B5B"/>
<path d="M12.2404 1.82386C11.9061 1.73782 11.5654 1.93907 11.4794 2.27335C11.3933 2.60763 11.5946 2.94837 11.9289 3.03441C14.6367 3.73136 16.7699 5.86456 17.4668 8.57239C17.5529 8.90667 17.8936 9.10791 18.2279 9.02187C18.5622 8.93584 18.7634 8.5951 18.6774 8.26081C17.8669 5.11194 15.3893 2.63433 12.2404 1.82386Z" fill="#5B5B5B"/>
</svg>
