<svg width="20" height="20" viewBox="0 0 20 20" fill="none" xmlns="http://www.w3.org/2000/svg">
<path d="M1.66797 10.0026C1.66797 6.85991 1.66797 5.28856 2.64428 4.31225C3.62059 3.33594 5.19194 3.33594 8.33464 3.33594H11.668C14.8107 3.33594 16.382 3.33594 17.3583 4.31225C18.3346 5.28856 18.3346 6.85991 18.3346 10.0026V11.6693C18.3346 14.812 18.3346 16.3833 17.3583 17.3596C16.382 18.3359 14.8107 18.3359 11.668 18.3359H8.33463C5.19194 18.3359 3.62059 18.3359 2.64428 17.3596C1.66797 16.3833 1.66797 14.812 1.66797 11.6693V10.0026Z" stroke="#D14532" stroke-width="1.5"/>
<path d="M5.83203 3.33594V2.08594" stroke="#D14532" stroke-width="1.5" stroke-linecap="round"/>
<path d="M14.168 3.33594V2.08594" stroke="#D14532" stroke-width="1.5" stroke-linecap="round"/>
<circle cx="13.75" cy="13.75" r="1.25" stroke="#D14532" stroke-width="1.5"/>
<path d="M2.08203 7.5H17.9154" stroke="#D14532" stroke-width="1.5" stroke-linecap="round"/>
</svg>
