<svg width="20" height="20" viewBox="0 0 20 20" fill="none" xmlns="http://www.w3.org/2000/svg">
<path fill-rule="evenodd" clip-rule="evenodd" d="M6.05217 2.71444C6.15183 1.77276 6.94856 1.03906 7.91667 1.03906H12.0833C13.0514 1.03906 13.8482 1.77276 13.9478 2.71444C14.5837 2.72739 15.1336 2.76028 15.603 2.84652C16.2347 2.96255 16.7723 3.18358 17.2097 3.62102C17.7113 4.12262 17.9271 4.75418 18.0279 5.50427C18.125 6.22674 18.125 7.14535 18.125 8.28501V13.3765C18.125 14.5161 18.125 15.4347 18.0279 16.1572C17.9271 16.9073 17.7113 17.5388 17.2097 18.0404C16.7081 18.542 16.0766 18.7578 15.3265 18.8586C14.604 18.9558 13.6854 18.9557 12.5457 18.9557H7.45428C6.31462 18.9557 5.39602 18.9558 4.67354 18.8586C3.92345 18.7578 3.29189 18.542 2.79029 18.0404C2.2887 17.5388 2.07295 16.9073 1.9721 16.1572C1.87497 15.4347 1.87498 14.5161 1.875 13.3765V8.285C1.87498 7.14534 1.87497 6.22674 1.9721 5.50427C2.07295 4.75418 2.2887 4.12262 2.79029 3.62102C3.22773 3.18358 3.7653 2.96255 4.39696 2.84652C4.86644 2.76028 5.41627 2.72739 6.05217 2.71444ZM6.05414 3.96478C5.45565 3.97756 4.99447 4.00768 4.62279 4.07595C4.15045 4.16271 3.87705 4.30203 3.67418 4.5049C3.44354 4.73554 3.29317 5.05935 3.21096 5.67083C3.12633 6.30029 3.125 7.13455 3.125 8.33073V13.3307C3.125 14.5269 3.12633 15.3612 3.21096 15.9906C3.29317 16.6021 3.44354 16.9259 3.67418 17.1566C3.90481 17.3872 4.22862 17.5376 4.8401 17.6198C5.46956 17.7044 6.30382 17.7057 7.5 17.7057H12.5C13.6962 17.7057 14.5304 17.7044 15.1599 17.6198C15.7714 17.5376 16.0952 17.3872 16.3258 17.1566C16.5565 16.9259 16.7068 16.6021 16.789 15.9906C16.8737 15.3612 16.875 14.5269 16.875 13.3307V8.33073C16.875 7.13455 16.8737 6.30029 16.789 5.67083C16.7068 5.05935 16.5565 4.73554 16.3258 4.5049C16.123 4.30203 15.8496 4.16271 15.3772 4.07595C15.0055 4.00768 14.5444 3.97756 13.9459 3.96478C13.8381 4.89791 13.0453 5.6224 12.0833 5.6224H7.91667C6.95466 5.6224 6.16187 4.89791 6.05414 3.96478ZM7.91667 2.28906C7.57149 2.28906 7.29167 2.56888 7.29167 2.91406V3.7474C7.29167 4.09257 7.57149 4.3724 7.91667 4.3724H12.0833C12.4285 4.3724 12.7083 4.09257 12.7083 3.7474V2.91406C12.7083 2.56888 12.4285 2.28906 12.0833 2.28906H7.91667ZM5.20833 8.7474C5.20833 8.40222 5.48816 8.1224 5.83333 8.1224H6.25C6.59518 8.1224 6.875 8.40222 6.875 8.7474C6.875 9.09257 6.59518 9.3724 6.25 9.3724H5.83333C5.48816 9.3724 5.20833 9.09257 5.20833 8.7474ZM8.125 8.7474C8.125 8.40222 8.40482 8.1224 8.75 8.1224H14.1667C14.5118 8.1224 14.7917 8.40222 14.7917 8.7474C14.7917 9.09257 14.5118 9.3724 14.1667 9.3724H8.75C8.40482 9.3724 8.125 9.09257 8.125 8.7474ZM5.20833 11.6641C5.20833 11.3189 5.48816 11.0391 5.83333 11.0391H6.25C6.59518 11.0391 6.875 11.3189 6.875 11.6641C6.875 12.0092 6.59518 12.2891 6.25 12.2891H5.83333C5.48816 12.2891 5.20833 12.0092 5.20833 11.6641ZM8.125 11.6641C8.125 11.3189 8.40482 11.0391 8.75 11.0391H14.1667C14.5118 11.0391 14.7917 11.3189 14.7917 11.6641C14.7917 12.0092 14.5118 12.2891 14.1667 12.2891H8.75C8.40482 12.2891 8.125 12.0092 8.125 11.6641ZM5.20833 14.5807C5.20833 14.2356 5.48816 13.9557 5.83333 13.9557H6.25C6.59518 13.9557 6.875 14.2356 6.875 14.5807C6.875 14.9259 6.59518 15.2057 6.25 15.2057H5.83333C5.48816 15.2057 5.20833 14.9259 5.20833 14.5807ZM8.125 14.5807C8.125 14.2356 8.40482 13.9557 8.75 13.9557H14.1667C14.5118 13.9557 14.7917 14.2356 14.7917 14.5807C14.7917 14.9259 14.5118 15.2057 14.1667 15.2057H8.75C8.40482 15.2057 8.125 14.9259 8.125 14.5807Z" fill="#D14532"/>
</svg>
