<svg width="18" height="18" viewBox="0 0 18 18" fill="none" xmlns="http://www.w3.org/2000/svg">
<path d="M9 10.875C8.81458 10.875 8.63333 10.82 8.47916 10.717C8.32499 10.614 8.20482 10.4676 8.13387 10.2963C8.06291 10.125 8.04434 9.93646 8.08052 9.7546C8.11669 9.57275 8.20598 9.4057 8.33709 9.27459C8.4682 9.14348 8.63525 9.05419 8.81711 9.01801C8.99896 8.98184 9.18746 9.00041 9.35877 9.07136C9.53007 9.14232 9.67649 9.26248 9.77951 9.41665C9.88252 9.57082 9.9375 9.75208 9.9375 9.9375C9.9375 10.1861 9.83873 10.4246 9.66292 10.6004C9.4871 10.7762 9.24864 10.875 9 10.875ZM17.125 9C17.125 10.607 16.6485 12.1779 15.7557 13.514C14.8629 14.8502 13.594 15.8916 12.1093 16.5065C10.6247 17.1215 8.99099 17.2824 7.4149 16.9689C5.8388 16.6554 4.39106 15.8815 3.25476 14.7452C2.11846 13.6089 1.34463 12.1612 1.03112 10.5851C0.717618 9.00901 0.87852 7.37535 1.49348 5.8907C2.10844 4.40605 3.14985 3.1371 4.486 2.24431C5.82214 1.35152 7.39303 0.875 9 0.875C11.1542 0.877275 13.2195 1.73403 14.7427 3.25727C16.266 4.78051 17.1227 6.84581 17.125 9ZM2.125 9V9.02578C4.04463 7.39521 6.48132 6.5 9 6.5C11.5187 6.5 13.9554 7.39521 15.875 9.02578V9C15.875 7.17664 15.1507 5.42795 13.8614 4.13864C12.5721 2.84933 10.8234 2.125 9 2.125C7.17664 2.125 5.42796 2.84933 4.13864 4.13864C2.84933 5.42795 2.125 7.17664 2.125 9ZM7.39844 15.6859L6.06641 12.125H2.87735C3.33037 13.0089 3.96881 13.7846 4.74906 14.3991C5.52932 15.0137 6.43302 15.4526 7.39844 15.6859ZM9 15.875C9.06485 15.875 9.12969 15.875 9.19454 15.875L10.7625 11.6898C10.8525 11.4517 11.0128 11.2465 11.2221 11.1015C11.4314 10.9566 11.6798 10.8786 11.9344 10.8781H15.6156C15.6453 10.7758 15.6719 10.6719 15.6938 10.5656C14.8209 9.67508 13.7792 8.96761 12.6295 8.48464C11.4799 8.00167 10.2454 7.7529 8.99844 7.7529C7.75147 7.7529 6.51702 8.00167 5.36737 8.48464C4.21773 8.96761 3.17598 9.67508 2.30313 10.5656C2.32735 10.6703 2.35391 10.7742 2.38125 10.8781H6.06641C6.32108 10.8788 6.56952 10.9569 6.7788 11.102C6.98809 11.2471 7.14833 11.4524 7.23828 11.6906L8.80078 15.875C8.86797 15.875 8.9336 15.875 9 15.875ZM15.1227 12.125H11.9336L10.5984 15.6867C11.5645 15.4538 12.4689 15.0149 13.2497 14.4002C14.0306 13.7855 14.6694 13.0094 15.1227 12.125Z" fill="#808080"/>
</svg>
